/* XPM */
static char *oolite-logo1[] = {
/* columns rows colors chars-per-pixel */
"32 32 181 2",
"   c #000000",
".  c #050609",
"X  c #030906",
"o  c #050A09",
"O  c #0A070F",
"+  c #080E0A",
"@  c #080A17",
"#  c #0B0A1C",
"$  c #0A110B",
"%  c #0A1213",
"&  c #0B111A",
"*  c #0D1B13",
"=  c #0A1A1B",
"-  c #1F1F1F",
";  c #0F0920",
":  c #0C1C20",
">  c #121120",
",  c #181735",
"<  c #18183F",
"1  c #0D2016",
"2  c #112517",
"3  c #133317",
"4  c #15351F",
"5  c #0E2A23",
"6  c #0D2B29",
"7  c #102027",
"8  c #112B25",
"9  c #16292B",
"0  c #162134",
"q  c #162C35",
"w  c #1D3B28",
"e  c #153331",
"r  c #123935",
"t  c #193140",
"y  c #271B4A",
"u  c #252D5A",
"i  c #31245A",
"p  c #3E2C73",
"a  c #343F7E",
"s  c #1D4B2A",
"d  c #1F4D35",
"f  c #204C25",
"g  c #21482D",
"h  c #245B2C",
"j  c #21543A",
"k  c #28622F",
"l  c #256034",
"z  c #2B6936",
"x  c #2C6C3B",
"c  c #2F7335",
"v  c #1F4B4E",
"b  c #1F4451",
"n  c #224D4F",
"m  c #25435A",
"M  c #205446",
"N  c #255E4B",
"B  c #245557",
"V  c #245E56",
"C  c #234466",
"Z  c #284C63",
"A  c #2B4074",
"S  c #335D7F",
"D  c #286645",
"F  c #2C604A",
"G  c #2A6A47",
"H  c #2A6B4A",
"J  c #29695E",
"K  c #2D7341",
"L  c #326352",
"P  c #326B56",
"I  c #376E5B",
"U  c #307943",
"Y  c #307B54",
"T  c #39725F",
"R  c #276F68",
"E  c #2C6272",
"W  c #2D6F73",
"Q  c #3D7C67",
"!  c #347877",
"~  c #33787C",
"^  c #397E7E",
"/  c #412E7B",
"(  c #3F5FAA",
")  c #37699B",
"_  c #41488E",
"`  c #4942A6",
"'  c #4E59B1",
"]  c #467C9D",
"[  c #4263A5",
"{  c #4469A2",
"}  c #476CA8",
"|  c #564EC2",
" . c #5B50C4",
".. c #4D73C2",
"X. c #5565D8",
"o. c #5969E2",
"O. c #675BDE",
"+. c #35833B",
"@. c #368A3D",
"#. c #368441",
"$. c #32844E",
"%. c #3D9A44",
"&. c #3D9C58",
"*. c #36886C",
"=. c #3F8868",
"-. c #399060",
";. c #3C9D6C",
":. c #3FA05B",
">. c #3FA860",
",. c #438B5C",
"<. c #409F4C",
"1. c #47935F",
"2. c #48945F",
"3. c #418F74",
"4. c #479361",
"5. c #489460",
"6. c #47967A",
"7. c #48967A",
"8. c #41A249",
"9. c #46A85D",
"0. c #4ABC67",
"q. c #4ABC7E",
"w. c #4DC165",
"e. c #4EC268",
"r. c #4FD077",
"t. c #56D669",
"y. c #56D861",
"u. c #55D777",
"i. c #53D27A",
"p. c #57D975",
"a. c #59E37E",
"s. c #3C849A",
"d. c #3A9586",
"f. c #399488",
"g. c #3C9196",
"h. c #418F9A",
"j. c #499E80",
"k. c #428AA5",
"l. c #4C84A6",
"z. c #4B85A8",
"x. c #41A281",
"c. c #42A598",
"v. c #4AB681",
"b. c #4AB495",
"n. c #53B291",
"m. c #48A6AD",
"M. c #4CADBA",
"N. c #5598D7",
"B. c #5A86E5",
"V. c #599FE2",
"C. c #4DA1C2",
"Z. c #5BB1D6",
"A. c #5BA1E6",
"S. c #5BBCE5",
"D. c #4EC98A",
"F. c #55D891",
"G. c #57DD98",
"H. c #5BD899",
"J. c #4DC1B3",
"K. c #54CBA7",
"L. c #53D3AD",
"P. c #5DDEA2",
"I. c #52DAB5",
"U. c #5AE483",
"Y. c #58E097",
"T. c #5BE69C",
"R. c #5BE5A2",
"E. c #5AE5BC",
"W. c #65DFB4",
"Q. c #66E2B5",
"!. c #68E6B9",
"~. c #55CCD7",
"^. c #53DACE",
"/. c #5AD7E4",
"(. c #5BD8E6",
"). c #5AE5D6",
"_. c #5AE5D8",
"`. c #DFDFDF",
"'. c #E3E3E3",
"]. c gray100",
"[. c None",
/* pixels */
"[.[.[.[.[.[.[.[.[.[.[.[.[.[.[.[.[.[.[.[.[.[.[.[.[.[.[.[.[.[.[.[.",
"[.[.[.[.[.[.[.[.[.[.[.[.[.[.[.[.[.[.[.[.[.[.[.[.[.[.[.[.[.[.[.[.",
"[.[.[.[.[.[.[.[.[.[.[.[.[.[.[.[.[.[.[.[.[.[.[.[.[.[.[.[.[.[.[.[.",
"-   [.[.[.[.[.[.[.[.[.[.[.[.[.[.[.[.[.[.[.[.[.[.[.[.[.[.[.[.    ",
"- p .   [.[.[.[.[.[.[.[.[.[.[.[.[.[.[.[.[.[.[.[.[.[.[.[.[.  i ; ",
"-  .| ,   [.[.[.[.[.[.[.[.[.[.[.[.[.[.[.[.[.[.[.[.[.[.  # ` O.# ",
"- . _ o.a .   [.[.[.[.[.[.[.[.[.[.[.[.[.[.[.[.[.[.[.  u X.' &   ",
"[.    A B...0   [.[.[.[.[.[.[.[.[.[.[.[.[.[.[.[.  & [ B.[     [.",
"[.[.[.C A.A.V._ X   [.[.[.[.[.[.[.[.[.[.[.[.    m N.A.A.)   [.[.",
"[.[.  q Z.S.S.S.M.e   [.[.[.        [.[.[.  = k.S.S.S.S.Z   [.[.",
"[.[.[.  % h.(.(.(./.~ .   [.X g.m.= [.    B ~.(.(.(.M.9     [.[.",
"[.[.[.[.    ^._.).).).J.e   r ).).R   = c._._._._._.6   [.[.[.[.",
"[.[.[.[.[.  I.E.E.E.E.E.M   o b.K.5   8 L.E.E.E.E.E.5 [.[.[.[.[.",
"[.[.[.[.[.  N P.R.R.R.D.X     * * X     ;.R.R.R.R.=.X [.[.[.[.[.",
"[.[.[.[.[.[.  2 ,.5.5.5.g     >.r.+   2 5.5.4.4.w     [.[.[.[.[.",
"[.[.[.[.    $ $ $ $ $ $ $ $ $ 3 h $ $ $ $ $ $ $ $ $ +   [.[.[.[.",
"[.[.[.    x w.w.z x t.8.z #.8.%.@.y.c k f #.h x x u.9.4     [.[.",
"[.[.[.    X $.G U.i.K G U.&.h 0.a.u.U a.x U.s &.&.U.8 X     [.[.",
"[.[.[.    d H.G G.D.Y H T.&.D q.T.F.Y Y.G T.j v.v.R.v.*     [.[.",
"[.[.[.[.    * 3.T Q W.n.I 7.x.N D *.6.Q.7.!.L P L P     [.[.[.[.",
"[.[.[.[.[.[.      X X     X V f.R f.X     . X         [.[.[.[.[.",
"[.[.[.[.[.[.[.[.    : n v v ^ W g.! n v v e     [.[.[.[.[.[.[.[.",
"[.[.[.[.[.[.[.[.[.      . O 7 s.E b . o       [.[.[.[.[.[.[.[.[.",
"[.[.[.[.[.[.[.[.[.[.[.  : ] z.Z S ] l.q     [.[.[.[.[.[.[.[.[.[.",
"[.[.[.[.[.[.[.[.[.[.[.[.      } { &     [.[.[.[.[.[.[.[.[.[.[.[.",
"[.[.[.[.[.[.[.[.[.[.[.[.[.      @     [.[.[.[.[.[.[.[.[.[.[.[.[.",
"[.[.[.[.[.[.[.[.[.[.[.[.[.[.  # <   [.[.[.[.[.[.[.[.[.[.[.[.[.[.",
"[.[.[.[.[.[.[.[.[.[.[.[.[.[.  y /   [.[.[.[.[.[.[.[.[.[.[.[.[.[.",
"[.[.[.[.[.[.[.[.[.[.[.[.[.[.  O >   [.[.[.[.[.[.[.[.[.[.[.[.[.[.",
"[.[.[.[.[.[.[.[.[.[.[.[.[.[.[.`.`.[.[.[.[.[.[.[.[.[.[.[.[.[.[.[.",
"[.[.[.[.[.[.[.[.[.[.[.[.[.[.[.[.[.[.[.[.[.[.[.[.[.[.[.[.[.[.[.[.",
"[.[.[.[.[.[.[.[.[.[.[.[.[.[.[.[.[.[.[.[.[.[.[.[.[.[.[.[.[.[.[.[."
};
