/* XPM */
static char * pixmap[] = {
/* width height num_colors chars_per_pixel */
"32 32 343 4",
/* colors */
"     c None",
"!    c #ffffff",
"#    c #f7eaea",
"$    c #f2f8f7",
"%    c #f1f7f6",
"&    c #f0d2d2",
"'    c #eee6e6",
"(    c #eed2d1",
")    c #edcfcf",
"*    c #ecd2d2",
"+    c #e9e2e2",
",    c #e7d9d9",
"-    c #e7b4b4",
".    c #e6dede",
"/    c #e6d2d2",
"0    c #e6cece",
"1    c #e3caca",
"2    c #e2d2d2",
"3    c #e1e2e1",
"4    c #e0e2e0",
"5    c #dfdbdc",
"6    c #dddcdb",
"7    c #dd8d8e",
"8    c #dcd6d6",
"9    c #dadada",
":    c #d9c8c8",
";    c #d7d4d1",
"<    c #d7ab00",
"=    c #d5afaf",
">    c #d4c8c8",
"?    c #d4b3b3",
"@    c #d46161",
"A    c #d3d3d1",
"B    c #d36262",
"C    c #d2d2d0",
"D    c #d2d0ce",
"E    c #d2bcbc",
"F    c #d0d1cf",
"G    c #d0c3c3",
"H    c #cfcfce",
"I    c #cfcfcd",
"J    c #cf8182",
"K    c #ced0d0",
"L    c #cec2c2",
"M    c #cea203",
"N    c #ce9797",
"O    c #cdcccb",
"P    c #cda103",
"Q    c #cccece",
"R    c #ccc1c1",
"S    c #ccaaaa",
"T    c #cc8283",
"U    c #cbd5d8",
"V    c #cbcac9",
"W    c #cba8a8",
"X    c #cb9a9a",
"Y    c #cac9c7",
"Z    c #ca9292",
"[    c #ca0000",
"]    c #c9c9c7",
"^    c #c9c0c0",
"_    c #c90000",
"`    c #c8aeae",
"a    c #c89f00",
"b    c #c89e00",
"c    c #c7d1d4",
"d    c #c70000",
"e    c #c6c7c6",
"f    c #c6c6c5",
"g    c #c6c6c4",
"h    c #c6a032",
"i    c #c5a9a9",
"j    c #c59d26",
"k    c #c4c6c4",
"l    c #c4c4c5",
"m    c #c4c4c3",
"n    c #c4c3c1",
"o    c #c3c4c5",
"p    c #c2c9c8",
"q    c #c2c1c0",
"r    c #c24a4a",
"s    c #c1c8c7",
"t    c #c0c1c2",
"u    c #bfbfbe",
"v    c #bebebd",
"w    c #bebdbd",
"x    c #bd3535",
"y    c #bcbaba",
"z    c #bbbebc",
"{    c #bbbdbc",
"|    c #bbbbba",
"}    c #bbbab9",
"~    c #baa8a8",
" !   c #ba5656",
"!!   c #b9bbbe",
"#!   c #b98a8a",
"$!   c #b8b6b5",
"%!   c #b89393",
"&!   c #b7b6b4",
"'!   c #b7a3a3",
"(!   c #b7a2a2",
")!   c #b77676",
"*!   c #b74d4d",
"+!   c #b6a9a9",
",!   c #b65300",
"-!   c #b48989",
".!   c #b3b3b2",
"/!   c #b39191",
"0!   c #b35200",
"1!   c #b31818",
"2!   c #b2b2b1",
"3!   c #b2a1a1",
"4!   c #b20000",
"5!   c #b1b1b0",
"6!   c #b1aead",
"7!   c #b10000",
"8!   c #b0aead",
"9!   c #b00000",
":!   c #af9c9c",
";!   c #af0000",
"<!   c #aeadac",
"=!   c #ada4a3",
">!   c #ada4a2",
"?!   c #ad0000",
"@!   c #ac8082",
"A!   c #abaaa9",
"B!   c #aaa9a8",
"C!   c #aaa9a7",
"D!   c #aa9c81",
"E!   c #aa8e93",
"F!   c #aa8082",
"G!   c #aa6b5f",
"H!   c #a98e92",
"I!   c #a89265",
"J!   c #a5a7a6",
"K!   c #a49064",
"L!   c #a40101",
"M!   c #a3a2a1",
"N!   c #a3a1a0",
"O!   c #a36767",
"P!   c #a30000",
"Q!   c #a27d7c",
"R!   c #a19a99",
"S!   c #a17d7c",
"T!   c #a17373",
"U!   c #a10101",
"V!   c #a10000",
"W!   c #a08e8e",
"X!   c #a01b00",
"Y!   c #a00000",
"Z!   c #9f9d9c",
"[!   c #9e0000",
"]!   c #9d9b9a",
"^!   c #9d807f",
"_!   c #9c9b9a",
"`!   c #9c7f7e",
"a!   c #9b7051",
"b!   c #9b6f50",
"c!   c #9a807f",
"d!   c #9a7e7d",
"e!   c #9a3b3b",
"f!   c #9a0000",
"g!   c #998383",
"h!   c #979491",
"i!   c #979392",
"j!   c #970000",
"k!   c #969594",
"l!   c #965959",
"m!   c #965756",
"n!   c #960000",
"o!   c #959493",
"p!   c #959191",
"q!   c #959190",
"r!   c #957978",
"s!   c #95760f",
"t!   c #95760a",
"u!   c #950000",
"v!   c #949392",
"w!   c #949190",
"x!   c #947a79",
"y!   c #947300",
"z!   c #945a5a",
"{!   c #945756",
"|!   c #940000",
"}!   c #930000",
"~!   c #929190",
" #   c #920000",
"!#   c #91908f",
"##   c #910000",
"$#   c #908f8e",
"%#   c #908778",
"&#   c #908584",
"'#   c #908483",
"(#   c #8f8066",
")#   c #8d7777",
"*#   c #8d4343",
"+#   c #8c7777",
",#   c #8b8a89",
"-#   c #8b8988",
".#   c #8b7852",
"/#   c #8b0000",
"0#   c #8a8988",
"1#   c #8a8887",
"2#   c #8a6a00",
"3#   c #8a2d2d",
"4#   c #8a0000",
"5#   c #897650",
"6#   c #896b00",
"7#   c #890000",
"8#   c #888786",
"9#   c #880000",
":#   c #878786",
";#   c #87837e",
"<#   c #877e73",
"=#   c #870000",
">#   c #865f5f",
"?#   c #855b5b",
"@#   c #84817b",
"A#   c #840000",
"B#   c #837e7d",
"C#   c #827070",
"D#   c #823131",
"E#   c #822120",
"F#   c #817070",
"G#   c #810000",
"H#   c #807d7c",
"I#   c #807c7b",
"J#   c #805251",
"K#   c #802121",
"L#   c #800000",
"M#   c #7f6060",
"N#   c #7f5f5f",
"O#   c #7f3131",
"P#   c #7f2929",
"Q#   c #7e7e7e",
"R#   c #7e5151",
"S#   c #7d7d7d",
"T#   c #7d7c7b",
"U#   c #7d7878",
"V#   c #7d6c6c",
"W#   c #7d0000",
"X#   c #7c7c7b",
"Y#   c #7c7a79",
"Z#   c #7c0000",
"[#   c #7b0101",
"]#   c #7b0000",
"^#   c #7a4c4b",
"_#   c #7a0000",
"`#   c #796f61",
"a#   c #794d4c",
"b#   c #790101",
"c#   c #790000",
"d#   c #780000",
"e#   c #777474",
"f#   c #770808",
"g#   c #770000",
"h#   c #767473",
"i#   c #720000",
"j#   c #705b5a",
"k#   c #6f6767",
"l#   c #6f6766",
"m#   c #6f0000",
"n#   c #6e0101",
"o#   c #6e0000",
"p#   c #6d0000",
"q#   c #6c5513",
"r#   c #6c0000",
"s#   c #6b5510",
"t#   c #6b0101",
"u#   c #6b0000",
"v#   c #6a0000",
"w#   c #690000",
"x#   c #674d00",
"y#   c #660000",
"z#   c #635251",
"{#   c #635150",
"|#   c #605f5e",
"}#   c #600101",
"~#   c #600000",
" $   c #5f5d5d",
"!$   c #5f0000",
"#$   c #5e0000",
"$$   c #5d0101",
"%$   c #5d0000",
"&$   c #5c4241",
"'$   c #5c0000",
"($   c #5b4242",
")$   c #5b3c3b",
"*$   c #5b100f",
"+$   c #5b0000",
",$   c #590000",
"-$   c #584040",
".$   c #581111",
"/$   c #573837",
"0$   c #563737",
"1$   c #540000",
"2$   c #520000",
"3$   c #51483a",
"4$   c #510101",
"5$   c #510000",
"6$   c #4f3737",
"7$   c #4f0101",
"8$   c #4f0000",
"9$   c #4e0000",
":$   c #4c0000",
";$   c #480000",
"<$   c #472e2e",
"=$   c #472423",
">$   c #460b0b",
"?$   c #460a0a",
"@$   c #460000",
"A$   c #450000",
"B$   c #440101",
"C$   c #440000",
"D$   c #411c1c",
"E$   c #410101",
"F$   c #410000",
"G$   c #3f3736",
"H$   c #3f3635",
"I$   c #3f0000",
"J$   c #3e0000",
"K$   c #3c0000",
"L$   c #3b3635",
"M$   c #3a3635",
"N$   c #3a201f",
"O$   c #392020",
"P$   c #380000",
"Q$   c #350000",
"R$   c #330000",
"S$   c #320000",
"T$   c #310000",
"U$   c #2f0000",
"V$   c #2d0000",
"W$   c #230000",
"X$   c #220000",
"Y$   c #210000",
"Z$   c #200000",
"[$   c #1f0000",
"]$   c #1e0000",
"^$   c #0e0000",
"_$   c #090000",
"`$   c #010000",
"a$   c #000000",
/* pixels */
"                                                                                                                                ",
"                                                                                                                                ",
"6   !                                                                                                                   !   5   ",
"v!  X#  A                                                                                                           C   T#  $#  ",
"0#  a$  |#  <!  !                                                                                           !   B!   $  a$  S#  ",
",#  a$  a$  G$  1#  3                                                                                   4   -#  H$  a$  a$  Q#  ",
"!#  a$  _$  [$  V$  k#  .!                                                                          2!  l#  U$  X$  ^$  `$  ,#  ",
"O   :#  M$  Z$  R$  P$  ($  p!  $                                                           %   q!  &$  K$  Q$  W$  L$  8#  I   ",
"        o!  Z$  S$  E$  :$  .$  F#  z                       !   !                       {   C#  *$  8$  B$  Q$  X$  k!          ",
"        ]!  ]$  T$  E$  7$  %$  y#  a#  R!  !           |   @#  ;#  w           !   R!  ^#  w#  ~#  4$  B$  R$  Y$  _!          ",
"        n   h#  O$  J$  8$  '$  t#  d#  K#  x!  p   !   <#  x#  x#  <#  !   s   r!  E#  ]#  n#  !$  4$  F$  N$  e#  q           ",
"            !   ~!  D$  9$  %$  v#  b#  9#  ##  {!  o   (#  y!  y!  (#  l   m!  |!  4#  [#  p#  !$  5$  =$  k!  !               ",
"                J!  <$  :$  $$  v#  c#  =#  }!  z!  K   %#  6#  2#  %#  Q   l!  n!  4#  ]#  p#  }#  9$  6$  5!                  ",
"                f   U#  /$  +$  r#  _#  7#  ##  c!  !   D!  a   b   D!  !   d!  u!  /#  W#  o#  #$  )$  B#  ]                   ",
"                !   &!  w!  I$  ;$  ,$  u#  g#  g#  `!  H!  j   h   E!  ^!  W#  Z#  m#  !$  8$  >$  i!  $!  !                   ",
"                m   Y#  C$  +#  +!  ~   T!  %!  W   X   T   G!  X!  J   Z   S   i   /!  (!  3!  )#  A$  Y#  g                   ",
"                Y   N!  -$  8   :!  '!  '   ,   )!  1   #   7   _   (   N   /   E   `   +   L   g!  0$  M!  V                   ",
"                H   I#  ?$  ^   R   G   :   2   ?   0   *   &   -   )    !  =   #!  -!  .   >   W!  @$  H#  F                   ",
"                    !   Z!  j#  M#  >#  f#  *#  O!  *!  x   B   @   r   1!  e!  3#  P#  ?#  N#  V#  Z!  !                       ",
"                            e   z#  2$  y#  m#  L#  ?!  [!  d   [   V!  7!  A#  i#  w#  1$  {#  k                               ",
"                                8!  R#  G#   #  U!  j!  ?!  0!  ,!  9!  f!  L!  u!  A#  J#  6!                                  ",
"                                    v   &#  O#  }!  Y!  ;!  P   M   4!  P!  u!  D#  '#  u                                       ",
"                                        !   =!  S!  F!  a!  <   <   b!  @!  Q!  >!  !                                           ",
"                                                    U   K!  t!  s!  I!  c                                                       ",
"                                                    ;   !!  5#  .#  t   D                                                       ",
"                                                        h!  q#  s#  h!                                                          ",
"                                                        C!  3$  3$  A!                                                          ",
"                                                        9   `#  `#  9                                                           ",
"                                                            y   }                                                               ",
"                                                                                                                                ",
"                                                                                                                                ",
"                                                                                                                                "
};
